<mxfile host="65bd71144e">
    <diagram id="UibdG1P6iw8BnFFcsrGG" name="Page-1">
        <mxGraphModel dx="1640" dy="943" grid="1" gridSize="10" guides="1" tooltips="1" connect="1" arrows="1" fold="1" page="1" pageScale="1" pageWidth="850" pageHeight="1100" math="0" shadow="0">
            <root>
                <mxCell id="0"/>
                <mxCell id="1" parent="0"/>
                <mxCell id="2" value="" style="rounded=1;whiteSpace=wrap;html=1;fontFamily=Lucida Console;align=right;shadow=0;sketch=1;fillStyle=cross-hatch;fillColor=none;" parent="1" vertex="1">
                    <mxGeometry x="0.29" y="40" width="160" height="40" as="geometry"/>
                </mxCell>
                <mxCell id="30" value="" style="endArrow=none;html=1;rounded=0;" parent="1" edge="1">
                    <mxGeometry width="50" height="50" relative="1" as="geometry">
                        <mxPoint x="0.29" y="30" as="sourcePoint"/>
                        <mxPoint x="160.29" y="30" as="targetPoint"/>
                        <Array as="points">
                            <mxPoint x="0.29" y="20"/>
                            <mxPoint x="160.29" y="20"/>
                        </Array>
                    </mxGeometry>
                </mxCell>
                <mxCell id="31" value="128 MiB" style="edgeLabel;html=1;align=center;verticalAlign=middle;resizable=0;points=[];fontFamily=Lucida Console;fontSize=12;" parent="30" vertex="1" connectable="0">
                    <mxGeometry x="0.7778" y="1" relative="1" as="geometry">
                        <mxPoint x="20" y="-9" as="offset"/>
                    </mxGeometry>
                </mxCell>
                <mxCell id="32" value="0 MiB" style="edgeLabel;html=1;align=center;verticalAlign=middle;resizable=0;points=[];fontFamily=Lucida Console;fontSize=12;" parent="30" vertex="1" connectable="0">
                    <mxGeometry x="-0.7143" y="2" relative="1" as="geometry">
                        <mxPoint x="-16" y="-8" as="offset"/>
                    </mxGeometry>
                </mxCell>
                <mxCell id="36" value="" style="rounded=1;whiteSpace=wrap;html=1;fontFamily=Lucida Console;align=right;shadow=0;sketch=1;fillStyle=cross-hatch;fillColor=none;" parent="1" vertex="1">
                    <mxGeometry x="0.28999999999999915" y="120" width="160" height="40" as="geometry"/>
                </mxCell>
                <mxCell id="37" value="" style="rounded=1;whiteSpace=wrap;html=1;fontFamily=Lucida Console;align=right;shadow=0;sketch=1;fillStyle=cross-hatch;fillColor=#666666;" parent="1" vertex="1">
                    <mxGeometry x="0.29" y="120" width="39.71" height="40" as="geometry"/>
                </mxCell>
                <mxCell id="43" value="b0" style="rounded=0;whiteSpace=wrap;html=1;fontFamily=Lucida Console;align=center;strokeColor=none;fillColor=none;fontSize=12;" parent="1" vertex="1">
                    <mxGeometry x="0.28999999999999915" y="160" width="60" height="40" as="geometry"/>
                </mxCell>
                <mxCell id="48" value="" style="rounded=1;whiteSpace=wrap;html=1;fontFamily=Lucida Console;align=right;shadow=0;sketch=1;fillStyle=cross-hatch;fillColor=none;" parent="1" vertex="1">
                    <mxGeometry x="0.28999999999999915" y="200" width="160" height="40" as="geometry"/>
                </mxCell>
                <mxCell id="49" value="" style="rounded=1;whiteSpace=wrap;html=1;fontFamily=Lucida Console;align=right;shadow=0;sketch=1;fillStyle=cross-hatch;fillColor=#666666;" parent="1" vertex="1">
                    <mxGeometry x="0.29" y="200" width="39.71" height="40" as="geometry"/>
                </mxCell>
                <mxCell id="50" value="" style="rounded=1;whiteSpace=wrap;html=1;fontFamily=Lucida Console;align=right;shadow=0;sketch=1;fillStyle=cross-hatch;fillColor=#666666;" parent="1" vertex="1">
                    <mxGeometry x="40" y="200" width="80" height="40" as="geometry"/>
                </mxCell>
                <mxCell id="55" value="b0" style="rounded=0;whiteSpace=wrap;html=1;fontFamily=Lucida Console;align=center;strokeColor=none;fillColor=none;fontSize=12;" parent="1" vertex="1">
                    <mxGeometry x="0.29" y="240" width="39.71" height="40" as="geometry"/>
                </mxCell>
                <mxCell id="56" value="b1" style="rounded=0;whiteSpace=wrap;html=1;fontFamily=Lucida Console;align=center;strokeColor=none;fillColor=none;fontSize=12;" parent="1" vertex="1">
                    <mxGeometry x="40" y="240" width="80" height="40" as="geometry"/>
                </mxCell>
                <mxCell id="60" value="" style="rounded=1;whiteSpace=wrap;html=1;fontFamily=Lucida Console;align=right;shadow=0;sketch=1;fillStyle=cross-hatch;fillColor=none;" parent="1" vertex="1">
                    <mxGeometry x="0.28999999999999915" y="280" width="160" height="40" as="geometry"/>
                </mxCell>
                <mxCell id="72" value="" style="rounded=1;whiteSpace=wrap;html=1;fontFamily=Lucida Console;align=right;shadow=0;sketch=1;fillStyle=cross-hatch;fillColor=none;" parent="1" vertex="1">
                    <mxGeometry x="0.28999999999999915" y="360" width="160" height="40" as="geometry"/>
                </mxCell>
                <mxCell id="84" value="" style="rounded=1;whiteSpace=wrap;html=1;fontFamily=Lucida Console;align=right;shadow=0;sketch=1;fillStyle=cross-hatch;fillColor=none;" parent="1" vertex="1">
                    <mxGeometry x="0.28999999999999915" y="440" width="160" height="40" as="geometry"/>
                </mxCell>
                <mxCell id="96" value="" style="rounded=1;whiteSpace=wrap;html=1;fontFamily=Lucida Console;align=right;shadow=0;sketch=1;fillStyle=cross-hatch;fillColor=none;" parent="1" vertex="1">
                    <mxGeometry x="0.28999999999999915" y="600" width="160" height="40" as="geometry"/>
                </mxCell>
                <mxCell id="97" value="&lt;pre&gt;&lt;span class=&quot;n&quot;&gt;createRingBufferMemoryPool()&lt;/span&gt;&lt;span class=&quot;p&quot;&gt;&lt;/span&gt;&lt;/pre&gt;" style="rounded=0;whiteSpace=wrap;html=1;fontFamily=Lucida Console;align=right;strokeColor=none;fillColor=none;fontSize=12;" parent="1" vertex="1">
                    <mxGeometry x="-200" y="40" width="200" height="40" as="geometry"/>
                </mxCell>
                <mxCell id="98" value="&lt;pre&gt;&lt;span class=&quot;n&quot;&gt;allocateBuffer(1024*1024*32)&lt;/span&gt;&lt;span class=&quot;p&quot;&gt;&lt;/span&gt;&lt;/pre&gt;" style="rounded=0;whiteSpace=wrap;html=1;fontFamily=Lucida Console;align=right;strokeColor=none;fillColor=none;fontSize=12;" parent="1" vertex="1">
                    <mxGeometry x="-200" y="120" width="200" height="40" as="geometry"/>
                </mxCell>
                <mxCell id="99" value="&lt;pre&gt;&lt;span class=&quot;n&quot;&gt;allocateBuffer(1024*1024*64)&lt;/span&gt;&lt;span class=&quot;p&quot;&gt;&lt;/span&gt;&lt;/pre&gt;" style="rounded=0;whiteSpace=wrap;html=1;fontFamily=Lucida Console;align=right;strokeColor=none;fillColor=none;fontSize=12;" parent="1" vertex="1">
                    <mxGeometry x="-200" y="200" width="200" height="40" as="geometry"/>
                </mxCell>
                <mxCell id="100" value="&lt;pre&gt;&lt;span class=&quot;n&quot;&gt;allocateBuffer(1024*1024*32)&lt;/span&gt;&lt;span class=&quot;p&quot;&gt;&lt;/span&gt;&lt;/pre&gt;" style="rounded=0;whiteSpace=wrap;html=1;fontFamily=Lucida Console;align=right;strokeColor=none;fillColor=none;fontSize=12;" parent="1" vertex="1">
                    <mxGeometry x="-200" y="280" width="200" height="40" as="geometry"/>
                </mxCell>
                <mxCell id="101" value="&lt;pre&gt;&lt;span class=&quot;n&quot;&gt;b0.reset()&lt;/span&gt;&lt;span class=&quot;p&quot;&gt;&lt;/span&gt;&lt;/pre&gt;" style="rounded=0;whiteSpace=wrap;html=1;fontFamily=Lucida Console;align=right;strokeColor=none;fillColor=none;fontSize=12;" parent="1" vertex="1">
                    <mxGeometry x="-200" y="360" width="200" height="40" as="geometry"/>
                </mxCell>
                <mxCell id="102" value="&lt;pre style=&quot;border-color: var(--border-color);&quot;&gt;&lt;span style=&quot;border-color: var(--border-color);&quot; class=&quot;n&quot;&gt;allocateBuffer(1024*1024*32)&lt;/span&gt;&lt;/pre&gt;" style="rounded=0;whiteSpace=wrap;html=1;fontFamily=Lucida Console;align=right;strokeColor=none;fillColor=none;fontSize=12;" parent="1" vertex="1">
                    <mxGeometry x="-200" y="440" width="200" height="40" as="geometry"/>
                </mxCell>
                <mxCell id="103" value="&lt;pre&gt;&lt;span class=&quot;n&quot;&gt;b1.reset()&lt;/span&gt;&lt;span class=&quot;p&quot;&gt;&lt;/span&gt;&lt;/pre&gt;" style="rounded=0;whiteSpace=wrap;html=1;fontFamily=Lucida Console;align=right;strokeColor=none;fillColor=none;fontSize=12;" parent="1" vertex="1">
                    <mxGeometry x="-199.71" y="600" width="200" height="40" as="geometry"/>
                </mxCell>
                <mxCell id="104" value="" style="rounded=1;whiteSpace=wrap;html=1;fontFamily=Lucida Console;align=right;shadow=0;sketch=1;fillStyle=cross-hatch;fillColor=none;" parent="1" vertex="1">
                    <mxGeometry x="0.28999999999999915" y="520" width="160" height="40" as="geometry"/>
                </mxCell>
                <mxCell id="116" value="&lt;pre&gt;&lt;span class=&quot;n&quot;&gt;b2.reset()&lt;/span&gt;&lt;span class=&quot;p&quot;&gt;&lt;/span&gt;&lt;/pre&gt;" style="rounded=0;whiteSpace=wrap;html=1;fontFamily=Lucida Console;align=right;strokeColor=none;fillColor=none;fontSize=12;" parent="1" vertex="1">
                    <mxGeometry x="-200" y="520" width="200" height="40" as="geometry"/>
                </mxCell>
                <mxCell id="117" value="" style="rounded=1;whiteSpace=wrap;html=1;fontFamily=Lucida Console;align=right;shadow=0;sketch=1;fillStyle=cross-hatch;fillColor=#666666;" vertex="1" parent="1">
                    <mxGeometry x="0.28999999999999915" y="280" width="39.71" height="40" as="geometry"/>
                </mxCell>
                <mxCell id="118" value="" style="rounded=1;whiteSpace=wrap;html=1;fontFamily=Lucida Console;align=right;shadow=0;sketch=1;fillStyle=cross-hatch;fillColor=#666666;" vertex="1" parent="1">
                    <mxGeometry x="40" y="280" width="80" height="40" as="geometry"/>
                </mxCell>
                <mxCell id="119" value="b0" style="rounded=0;whiteSpace=wrap;html=1;fontFamily=Lucida Console;align=center;strokeColor=none;fillColor=none;fontSize=12;" vertex="1" parent="1">
                    <mxGeometry x="0.28999999999999915" y="320" width="39.71" height="40" as="geometry"/>
                </mxCell>
                <mxCell id="120" value="b1" style="rounded=0;whiteSpace=wrap;html=1;fontFamily=Lucida Console;align=center;strokeColor=none;fillColor=none;fontSize=12;" vertex="1" parent="1">
                    <mxGeometry x="40" y="320" width="80" height="40" as="geometry"/>
                </mxCell>
                <mxCell id="121" value="" style="rounded=1;whiteSpace=wrap;html=1;fontFamily=Lucida Console;align=right;shadow=0;sketch=1;fillStyle=cross-hatch;fillColor=#666666;" vertex="1" parent="1">
                    <mxGeometry x="120.58000000000001" y="280" width="39.71" height="40" as="geometry"/>
                </mxCell>
                <mxCell id="122" value="b2" style="rounded=0;whiteSpace=wrap;html=1;fontFamily=Lucida Console;align=center;strokeColor=none;fillColor=none;fontSize=12;" vertex="1" parent="1">
                    <mxGeometry x="120.58000000000001" y="320" width="39.71" height="40" as="geometry"/>
                </mxCell>
                <mxCell id="123" value="" style="rounded=1;whiteSpace=wrap;html=1;fontFamily=Lucida Console;align=right;shadow=0;sketch=1;fillStyle=cross-hatch;fillColor=#666666;" vertex="1" parent="1">
                    <mxGeometry x="40" y="360" width="80" height="40" as="geometry"/>
                </mxCell>
                <mxCell id="124" value="b1" style="rounded=0;whiteSpace=wrap;html=1;fontFamily=Lucida Console;align=center;strokeColor=none;fillColor=none;fontSize=12;" vertex="1" parent="1">
                    <mxGeometry x="40" y="400" width="80" height="40" as="geometry"/>
                </mxCell>
                <mxCell id="125" value="" style="rounded=1;whiteSpace=wrap;html=1;fontFamily=Lucida Console;align=right;shadow=0;sketch=1;fillStyle=cross-hatch;fillColor=#666666;" vertex="1" parent="1">
                    <mxGeometry x="120.58000000000001" y="360" width="39.71" height="40" as="geometry"/>
                </mxCell>
                <mxCell id="126" value="b2" style="rounded=0;whiteSpace=wrap;html=1;fontFamily=Lucida Console;align=center;strokeColor=none;fillColor=none;fontSize=12;" vertex="1" parent="1">
                    <mxGeometry x="120.58000000000001" y="400" width="39.71" height="40" as="geometry"/>
                </mxCell>
                <mxCell id="127" value="" style="rounded=1;whiteSpace=wrap;html=1;fontFamily=Lucida Console;align=right;shadow=0;sketch=1;fillStyle=cross-hatch;fillColor=#666666;" vertex="1" parent="1">
                    <mxGeometry x="40" y="440" width="80" height="40" as="geometry"/>
                </mxCell>
                <mxCell id="128" value="b1" style="rounded=0;whiteSpace=wrap;html=1;fontFamily=Lucida Console;align=center;strokeColor=none;fillColor=none;fontSize=12;" vertex="1" parent="1">
                    <mxGeometry x="40" y="480" width="80" height="40" as="geometry"/>
                </mxCell>
                <mxCell id="129" value="" style="rounded=1;whiteSpace=wrap;html=1;fontFamily=Lucida Console;align=right;shadow=0;sketch=1;fillStyle=cross-hatch;fillColor=#666666;" vertex="1" parent="1">
                    <mxGeometry x="120.58000000000001" y="440" width="39.71" height="40" as="geometry"/>
                </mxCell>
                <mxCell id="130" value="b2" style="rounded=0;whiteSpace=wrap;html=1;fontFamily=Lucida Console;align=center;strokeColor=none;fillColor=none;fontSize=12;" vertex="1" parent="1">
                    <mxGeometry x="120.58000000000001" y="480" width="39.71" height="40" as="geometry"/>
                </mxCell>
                <mxCell id="131" value="b3" style="rounded=0;whiteSpace=wrap;html=1;fontFamily=Lucida Console;align=center;strokeColor=none;fillColor=none;fontSize=12;" vertex="1" parent="1">
                    <mxGeometry x="0.29000000000002046" y="480" width="39.71" height="40" as="geometry"/>
                </mxCell>
                <mxCell id="132" value="" style="rounded=1;whiteSpace=wrap;html=1;fontFamily=Lucida Console;align=right;shadow=0;sketch=1;fillStyle=cross-hatch;fillColor=#666666;" vertex="1" parent="1">
                    <mxGeometry y="440" width="39.71" height="40" as="geometry"/>
                </mxCell>
                <mxCell id="133" value="" style="rounded=1;whiteSpace=wrap;html=1;fontFamily=Lucida Console;align=right;shadow=0;sketch=1;fillStyle=cross-hatch;fillColor=#CC0000;" vertex="1" parent="1">
                    <mxGeometry x="40" y="520" width="80" height="40" as="geometry"/>
                </mxCell>
                <mxCell id="134" value="b1" style="rounded=0;whiteSpace=wrap;html=1;fontFamily=Lucida Console;align=center;strokeColor=none;fillColor=none;fontSize=12;" vertex="1" parent="1">
                    <mxGeometry x="40" y="560" width="80" height="40" as="geometry"/>
                </mxCell>
                <mxCell id="135" value="b3" style="rounded=0;whiteSpace=wrap;html=1;fontFamily=Lucida Console;align=center;strokeColor=none;fillColor=none;fontSize=12;" vertex="1" parent="1">
                    <mxGeometry x="0.29000000000002046" y="560" width="39.71" height="40" as="geometry"/>
                </mxCell>
                <mxCell id="136" value="" style="rounded=1;whiteSpace=wrap;html=1;fontFamily=Lucida Console;align=right;shadow=0;sketch=1;fillStyle=cross-hatch;fillColor=#CC0000;" vertex="1" parent="1">
                    <mxGeometry y="520" width="39.71" height="40" as="geometry"/>
                </mxCell>
                <mxCell id="137" value="b3" style="rounded=0;whiteSpace=wrap;html=1;fontFamily=Lucida Console;align=center;strokeColor=none;fillColor=none;fontSize=12;" vertex="1" parent="1">
                    <mxGeometry x="2.1316282072803006e-14" y="640" width="39.71" height="40" as="geometry"/>
                </mxCell>
                <mxCell id="138" value="" style="rounded=1;whiteSpace=wrap;html=1;fontFamily=Lucida Console;align=right;shadow=0;sketch=1;fillStyle=cross-hatch;fillColor=#666666;" vertex="1" parent="1">
                    <mxGeometry x="-0.28999999999999915" y="600" width="39.71" height="40" as="geometry"/>
                </mxCell>
            </root>
        </mxGraphModel>
    </diagram>
</mxfile>